<svg class="rich-terminal" viewBox="0 0 1238 782.0" xmlns="http://www.w3.org/2000/svg">
    <!-- Generated with Rich https://www.textualize.io -->
    <style>

    @font-face {
        font-family: "Fira Code";
        src: local("FiraCode-Regular"),
                url("https://cdnjs.cloudflare.com/ajax/libs/firacode/6.2.0/woff2/FiraCode-Regular.woff2") format("woff2"),
                url("https://cdnjs.cloudflare.com/ajax/libs/firacode/6.2.0/woff/FiraCode-Regular.woff") format("woff");
        font-style: normal;
        font-weight: 400;
    }
    @font-face {
        font-family: "Fira Code";
        src: local("FiraCode-Bold"),
                url("https://cdnjs.cloudflare.com/ajax/libs/firacode/6.2.0/woff2/FiraCode-Bold.woff2") format("woff2"),
                url("https://cdnjs.cloudflare.com/ajax/libs/firacode/6.2.0/woff/FiraCode-Bold.woff") format("woff");
        font-style: bold;
        font-weight: 700;
    }

    .terminal-1845601409-matrix {
        font-family: Fira Code, monospace;
        font-size: 20px;
        line-height: 24.4px;
        font-variant-east-asian: full-width;
    }

    .terminal-1845601409-title {
        font-size: 18px;
        font-weight: bold;
        font-family: arial;
    }

    .terminal-1845601409-r1 { fill: #c5c8c6 }
.terminal-1845601409-r2 { fill: #d4d4d4 }
.terminal-1845601409-r3 { fill: #8a8a8a }
.terminal-1845601409-r4 { fill: #f5f5f5 }
.terminal-1845601409-r5 { fill: #7ed491 }
.terminal-1845601409-r6 { fill: #4a4a4a }
.terminal-1845601409-r7 { fill: #ff2247 }
    </style>

    <defs>
    <clipPath id="terminal-1845601409-clip-terminal">
      <rect x="0" y="0" width="1219.0" height="731.0" />
    </clipPath>
    <clipPath id="terminal-1845601409-line-0">
    <rect x="0" y="1.5" width="1220" height="24.65"/>
            </clipPath>
<clipPath id="terminal-1845601409-line-1">
    <rect x="0" y="25.9" width="1220" height="24.65"/>
            </clipPath>
<clipPath id="terminal-1845601409-line-2">
    <rect x="0" y="50.3" width="1220" height="24.65"/>
            </clipPath>
<clipPath id="terminal-1845601409-line-3">
    <rect x="0" y="74.7" width="1220" height="24.65"/>
            </clipPath>
<clipPath id="terminal-1845601409-line-4">
    <rect x="0" y="99.1" width="1220" height="24.65"/>
            </clipPath>
<clipPath id="terminal-1845601409-line-5">
    <rect x="0" y="123.5" width="1220" height="24.65"/>
            </clipPath>
<clipPath id="terminal-1845601409-line-6">
    <rect x="0" y="147.9" width="1220" height="24.65"/>
            </clipPath>
<clipPath id="terminal-1845601409-line-7">
    <rect x="0" y="172.3" width="1220" height="24.65"/>
            </clipPath>
<clipPath id="terminal-1845601409-line-8">
    <rect x="0" y="196.7" width="1220" height="24.65"/>
            </clipPath>
<clipPath id="terminal-1845601409-line-9">
    <rect x="0" y="221.1" width="1220" height="24.65"/>
            </clipPath>
<clipPath id="terminal-1845601409-line-10">
    <rect x="0" y="245.5" width="1220" height="24.65"/>
            </clipPath>
<clipPath id="terminal-1845601409-line-11">
    <rect x="0" y="269.9" width="1220" height="24.65"/>
            </clipPath>
<clipPath id="terminal-1845601409-line-12">
    <rect x="0" y="294.3" width="1220" height="24.65"/>
            </clipPath>
<clipPath id="terminal-1845601409-line-13">
    <rect x="0" y="318.7" width="1220" height="24.65"/>
            </clipPath>
<clipPath id="terminal-1845601409-line-14">
    <rect x="0" y="343.1" width="1220" height="24.65"/>
            </clipPath>
<clipPath id="terminal-1845601409-line-15">
    <rect x="0" y="367.5" width="1220" height="24.65"/>
            </clipPath>
<clipPath id="terminal-1845601409-line-16">
    <rect x="0" y="391.9" width="1220" height="24.65"/>
            </clipPath>
<clipPath id="terminal-1845601409-line-17">
    <rect x="0" y="416.3" width="1220" height="24.65"/>
            </clipPath>
<clipPath id="terminal-1845601409-line-18">
    <rect x="0" y="440.7" width="1220" height="24.65"/>
            </clipPath>
<clipPath id="terminal-1845601409-line-19">
    <rect x="0" y="465.1" width="1220" height="24.65"/>
            </clipPath>
<clipPath id="terminal-1845601409-line-20">
    <rect x="0" y="489.5" width="1220" height="24.65"/>
            </clipPath>
<clipPath id="terminal-1845601409-line-21">
    <rect x="0" y="513.9" width="1220" height="24.65"/>
            </clipPath>
<clipPath id="terminal-1845601409-line-22">
    <rect x="0" y="538.3" width="1220" height="24.65"/>
            </clipPath>
<clipPath id="terminal-1845601409-line-23">
    <rect x="0" y="562.7" width="1220" height="24.65"/>
            </clipPath>
<clipPath id="terminal-1845601409-line-24">
    <rect x="0" y="587.1" width="1220" height="24.65"/>
            </clipPath>
<clipPath id="terminal-1845601409-line-25">
    <rect x="0" y="611.5" width="1220" height="24.65"/>
            </clipPath>
<clipPath id="terminal-1845601409-line-26">
    <rect x="0" y="635.9" width="1220" height="24.65"/>
            </clipPath>
<clipPath id="terminal-1845601409-line-27">
    <rect x="0" y="660.3" width="1220" height="24.65"/>
            </clipPath>
<clipPath id="terminal-1845601409-line-28">
    <rect x="0" y="684.7" width="1220" height="24.65"/>
            </clipPath>
    </defs>

    <rect fill="#292929" stroke="rgba(255,255,255,0.35)" stroke-width="1" x="1" y="1" width="1236" height="780" rx="8"/><text class="terminal-1845601409-title" fill="#c5c8c6" text-anchor="middle" x="618" y="27">wolf&#160;·&#160;cycle</text>
            <g transform="translate(26,22)">
            <circle cx="0" cy="0" r="7" fill="#ff5f57"/>
            <circle cx="22" cy="0" r="7" fill="#febc2e"/>
            <circle cx="44" cy="0" r="7" fill="#28c840"/>
            </g>
        
    <g transform="translate(9, 41)" clip-path="url(#terminal-1845601409-clip-terminal)">
    <rect fill="#000000" x="0" y="1.5" width="12.2" height="24.65" shape-rendering="crispEdges"/><rect fill="#000000" x="12.2" y="1.5" width="0" height="24.65" shape-rendering="crispEdges"/><rect fill="#000000" x="12.2" y="1.5" width="1195.6" height="24.65" shape-rendering="crispEdges"/><rect fill="#000000" x="1207.8" y="1.5" width="12.2" height="24.65" shape-rendering="crispEdges"/><rect fill="#000000" x="0" y="25.9" width="12.2" height="24.65" shape-rendering="crispEdges"/><rect fill="#000000" x="12.2" y="25.9" width="24.4" height="24.65" shape-rendering="crispEdges"/><rect fill="#000000" x="36.6" y="25.9" width="61" height="24.65" shape-rendering="crispEdges"/><rect fill="#000000" x="97.6" y="25.9" width="12.2" height="24.65" shape-rendering="crispEdges"/><rect fill="#000000" x="109.8" y="25.9" width="97.6" height="24.65" shape-rendering="crispEdges"/><rect fill="#000000" x="207.4" y="25.9" width="12.2" height="24.65" shape-rendering="crispEdges"/><rect fill="#000000" x="219.6" y="25.9" width="500.2" height="24.65" shape-rendering="crispEdges"/><rect fill="#000000" x="719.8" y="25.9" width="488" height="24.65" shape-rendering="crispEdges"/><rect fill="#000000" x="1207.8" y="25.9" width="12.2" height="24.65" shape-rendering="crispEdges"/><rect fill="#000000" x="0" y="50.3" width="12.2" height="24.65" shape-rendering="crispEdges"/><rect fill="#000000" x="12.2" y="50.3" width="0" height="24.65" shape-rendering="crispEdges"/><rect fill="#000000" x="12.2" y="50.3" width="1195.6" height="24.65" shape-rendering="crispEdges"/><rect fill="#000000" x="1207.8" y="50.3" width="12.2" height="24.65" shape-rendering="crispEdges"/><rect fill="#000000" x="0" y="74.7" width="12.2" height="24.65" shape-rendering="crispEdges"/><rect fill="#000000" x="12.2" y="74.7" width="24.4" height="24.65" shape-rendering="crispEdges"/><rect fill="#000000" x="36.6" y="74.7" width="109.8" height="24.65" shape-rendering="crispEdges"/><rect fill="#000000" x="146.4" y="74.7" width="24.4" height="24.65" shape-rendering="crispEdges"/><rect fill="#000000" x="170.8" y="74.7" width="109.8" height="24.65" shape-rendering="crispEdges"/><rect fill="#000000" x="280.6" y="74.7" width="24.4" height="24.65" shape-rendering="crispEdges"/><rect fill="#000000" x="305" y="74.7" width="109.8" height="24.65" shape-rendering="crispEdges"/><rect fill="#000000" x="414.8" y="74.7" width="24.4" height="24.65" shape-rendering="crispEdges"/><rect fill="#000000" x="439.2" y="74.7" width="109.8" height="24.65" shape-rendering="crispEdges"/><rect fill="#000000" x="549" y="74.7" width="24.4" height="24.65" shape-rendering="crispEdges"/><rect fill="#000000" x="573.4" y="74.7" width="109.8" height="24.65" shape-rendering="crispEdges"/><rect fill="#000000" x="683.2" y="74.7" width="24.4" height="24.65" shape-rendering="crispEdges"/><rect fill="#000000" x="707.6" y="74.7" width="109.8" height="24.65" shape-rendering="crispEdges"/><rect fill="#000000" x="817.4" y="74.7" width="390.4" height="24.65" shape-rendering="crispEdges"/><rect fill="#000000" x="1207.8" y="74.7" width="12.2" height="24.65" shape-rendering="crispEdges"/><rect fill="#000000" x="0" y="99.1" width="12.2" height="24.65" shape-rendering="crispEdges"/><rect fill="#000000" x="12.2" y="99.1" width="24.4" height="24.65" shape-rendering="crispEdges"/><rect fill="#000000" x="36.6" y="99.1" width="109.8" height="24.65" shape-rendering="crispEdges"/><rect fill="#000000" x="146.4" y="99.1" width="36.6" height="24.65" shape-rendering="crispEdges"/><rect fill="#000000" x="183" y="99.1" width="109.8" height="24.65" shape-rendering="crispEdges"/><rect fill="#000000" x="292.8" y="99.1" width="36.6" height="24.65" shape-rendering="crispEdges"/><rect fill="#000000" x="329.4" y="99.1" width="109.8" height="24.65" shape-rendering="crispEdges"/><rect fill="#000000" x="439.2" y="99.1" width="36.6" height="24.65" shape-rendering="crispEdges"/><rect fill="#000000" x="475.8" y="99.1" width="109.8" height="24.65" shape-rendering="crispEdges"/><rect fill="#000000" x="585.6" y="99.1" width="36.6" height="24.65" shape-rendering="crispEdges"/><rect fill="#000000" x="622.2" y="99.1" width="109.8" height="24.65" shape-rendering="crispEdges"/><rect fill="#000000" x="732" y="99.1" width="36.6" height="24.65" shape-rendering="crispEdges"/><rect fill="#000000" x="768.6" y="99.1" width="109.8" height="24.65" shape-rendering="crispEdges"/><rect fill="#000000" x="878.4" y="99.1" width="329.4" height="24.65" shape-rendering="crispEdges"/><rect fill="#000000" x="1207.8" y="99.1" width="12.2" height="24.65" shape-rendering="crispEdges"/><rect fill="#000000" x="0" y="123.5" width="12.2" height="24.65" shape-rendering="crispEdges"/><rect fill="#000000" x="12.2" y="123.5" width="0" height="24.65" shape-rendering="crispEdges"/><rect fill="#000000" x="12.2" y="123.5" width="1195.6" height="24.65" shape-rendering="crispEdges"/><rect fill="#000000" x="1207.8" y="123.5" width="12.2" height="24.65" shape-rendering="crispEdges"/><rect fill="#000000" x="0" y="147.9" width="12.2" height="24.65" shape-rendering="crispEdges"/><rect fill="#000000" x="12.2" y="147.9" width="24.4" height="24.65" shape-rendering="crispEdges"/><rect fill="#000000" x="36.6" y="147.9" width="146.4" height="24.65" shape-rendering="crispEdges"/><rect fill="#000000" x="183" y="147.9" width="24.4" height="24.65" shape-rendering="crispEdges"/><rect fill="#000000" x="207.4" y="147.9" width="12.2" height="24.65" shape-rendering="crispEdges"/><rect fill="#000000" x="219.6" y="147.9" width="12.2" height="24.65" shape-rendering="crispEdges"/><rect fill="#000000" x="231.8" y="147.9" width="109.8" height="24.65" shape-rendering="crispEdges"/><rect fill="#000000" x="341.6" y="147.9" width="12.2" height="24.65" shape-rendering="crispEdges"/><rect fill="#000000" x="353.8" y="147.9" width="463.6" height="24.65" shape-rendering="crispEdges"/><rect fill="#000000" x="817.4" y="147.9" width="390.4" height="24.65" shape-rendering="crispEdges"/><rect fill="#000000" x="1207.8" y="147.9" width="12.2" height="24.65" shape-rendering="crispEdges"/><rect fill="#000000" x="0" y="172.3" width="12.2" height="24.65" shape-rendering="crispEdges"/><rect fill="#000000" x="12.2" y="172.3" width="24.4" height="24.65" shape-rendering="crispEdges"/><rect fill="#000000" x="36.6" y="172.3" width="146.4" height="24.65" shape-rendering="crispEdges"/><rect fill="#000000" x="183" y="172.3" width="24.4" height="24.65" shape-rendering="crispEdges"/><rect fill="#000000" x="207.4" y="172.3" width="12.2" height="24.65" shape-rendering="crispEdges"/><rect fill="#000000" x="219.6" y="172.3" width="12.2" height="24.65" shape-rendering="crispEdges"/><rect fill="#000000" x="231.8" y="172.3" width="109.8" height="24.65" shape-rendering="crispEdges"/><rect fill="#000000" x="341.6" y="172.3" width="12.2" height="24.65" shape-rendering="crispEdges"/><rect fill="#000000" x="353.8" y="172.3" width="451.4" height="24.65" shape-rendering="crispEdges"/><rect fill="#000000" x="805.2" y="172.3" width="402.6" height="24.65" shape-rendering="crispEdges"/><rect fill="#000000" x="1207.8" y="172.3" width="12.2" height="24.65" shape-rendering="crispEdges"/><rect fill="#000000" x="0" y="196.7" width="12.2" height="24.65" shape-rendering="crispEdges"/><rect fill="#000000" x="12.2" y="196.7" width="24.4" height="24.65" shape-rendering="crispEdges"/><rect fill="#000000" x="36.6" y="196.7" width="146.4" height="24.65" shape-rendering="crispEdges"/><rect fill="#000000" x="183" y="196.7" width="24.4" height="24.65" shape-rendering="crispEdges"/><rect fill="#000000" x="207.4" y="196.7" width="12.2" height="24.65" shape-rendering="crispEdges"/><rect fill="#000000" x="219.6" y="196.7" width="12.2" height="24.65" shape-rendering="crispEdges"/><rect fill="#000000" x="231.8" y="196.7" width="109.8" height="24.65" shape-rendering="crispEdges"/><rect fill="#000000" x="341.6" y="196.7" width="12.2" height="24.65" shape-rendering="crispEdges"/><rect fill="#000000" x="353.8" y="196.7" width="585.6" height="24.65" shape-rendering="crispEdges"/><rect fill="#000000" x="939.4" y="196.7" width="268.4" height="24.65" shape-rendering="crispEdges"/><rect fill="#000000" x="1207.8" y="196.7" width="12.2" height="24.65" shape-rendering="crispEdges"/><rect fill="#000000" x="0" y="221.1" width="12.2" height="24.65" shape-rendering="crispEdges"/><rect fill="#000000" x="12.2" y="221.1" width="24.4" height="24.65" shape-rendering="crispEdges"/><rect fill="#000000" x="36.6" y="221.1" width="146.4" height="24.65" shape-rendering="crispEdges"/><rect fill="#000000" x="183" y="221.1" width="24.4" height="24.65" shape-rendering="crispEdges"/><rect fill="#000000" x="207.4" y="221.1" width="12.2" height="24.65" shape-rendering="crispEdges"/><rect fill="#000000" x="219.6" y="221.1" width="12.2" height="24.65" shape-rendering="crispEdges"/><rect fill="#000000" x="231.8" y="221.1" width="109.8" height="24.65" shape-rendering="crispEdges"/><rect fill="#000000" x="341.6" y="221.1" width="12.2" height="24.65" shape-rendering="crispEdges"/><rect fill="#000000" x="353.8" y="221.1" width="329.4" height="24.65" shape-rendering="crispEdges"/><rect fill="#000000" x="683.2" y="221.1" width="524.6" height="24.65" shape-rendering="crispEdges"/><rect fill="#000000" x="1207.8" y="221.1" width="12.2" height="24.65" shape-rendering="crispEdges"/><rect fill="#000000" x="0" y="245.5" width="12.2" height="24.65" shape-rendering="crispEdges"/><rect fill="#000000" x="12.2" y="245.5" width="24.4" height="24.65" shape-rendering="crispEdges"/><rect fill="#000000" x="36.6" y="245.5" width="146.4" height="24.65" shape-rendering="crispEdges"/><rect fill="#000000" x="183" y="245.5" width="24.4" height="24.65" shape-rendering="crispEdges"/><rect fill="#000000" x="207.4" y="245.5" width="12.2" height="24.65" shape-rendering="crispEdges"/><rect fill="#000000" x="219.6" y="245.5" width="12.2" height="24.65" shape-rendering="crispEdges"/><rect fill="#000000" x="231.8" y="245.5" width="109.8" height="24.65" shape-rendering="crispEdges"/><rect fill="#000000" x="341.6" y="245.5" width="12.2" height="24.65" shape-rendering="crispEdges"/><rect fill="#000000" x="353.8" y="245.5" width="378.2" height="24.65" shape-rendering="crispEdges"/><rect fill="#000000" x="732" y="245.5" width="475.8" height="24.65" shape-rendering="crispEdges"/><rect fill="#000000" x="1207.8" y="245.5" width="12.2" height="24.65" shape-rendering="crispEdges"/><rect fill="#000000" x="0" y="269.9" width="12.2" height="24.65" shape-rendering="crispEdges"/><rect fill="#000000" x="12.2" y="269.9" width="24.4" height="24.65" shape-rendering="crispEdges"/><rect fill="#000000" x="36.6" y="269.9" width="146.4" height="24.65" shape-rendering="crispEdges"/><rect fill="#000000" x="183" y="269.9" width="24.4" height="24.65" shape-rendering="crispEdges"/><rect fill="#000000" x="207.4" y="269.9" width="12.2" height="24.65" shape-rendering="crispEdges"/><rect fill="#000000" x="219.6" y="269.9" width="12.2" height="24.65" shape-rendering="crispEdges"/><rect fill="#000000" x="231.8" y="269.9" width="109.8" height="24.65" shape-rendering="crispEdges"/><rect fill="#000000" x="341.6" y="269.9" width="12.2" height="24.65" shape-rendering="crispEdges"/><rect fill="#000000" x="353.8" y="269.9" width="183" height="24.65" shape-rendering="crispEdges"/><rect fill="#000000" x="536.8" y="269.9" width="671" height="24.65" shape-rendering="crispEdges"/><rect fill="#000000" x="1207.8" y="269.9" width="12.2" height="24.65" shape-rendering="crispEdges"/><rect fill="#000000" x="0" y="294.3" width="12.2" height="24.65" shape-rendering="crispEdges"/><rect fill="#000000" x="12.2" y="294.3" width="0" height="24.65" shape-rendering="crispEdges"/><rect fill="#000000" x="12.2" y="294.3" width="1195.6" height="24.65" shape-rendering="crispEdges"/><rect fill="#000000" x="1207.8" y="294.3" width="12.2" height="24.65" shape-rendering="crispEdges"/><rect fill="#000000" x="0" y="318.7" width="12.2" height="24.65" shape-rendering="crispEdges"/><rect fill="#000000" x="12.2" y="318.7" width="24.4" height="24.65" shape-rendering="crispEdges"/><rect fill="#000000" x="36.6" y="318.7" width="109.8" height="24.65" shape-rendering="crispEdges"/><rect fill="#000000" x="146.4" y="318.7" width="12.2" height="24.65" shape-rendering="crispEdges"/><rect fill="#000000" x="158.6" y="318.7" width="207.4" height="24.65" shape-rendering="crispEdges"/><rect fill="#000000" x="366" y="318.7" width="841.8" height="24.65" shape-rendering="crispEdges"/><rect fill="#000000" x="1207.8" y="318.7" width="12.2" height="24.65" shape-rendering="crispEdges"/><rect fill="#000000" x="0" y="343.1" width="12.2" height="24.65" shape-rendering="crispEdges"/><rect fill="#000000" x="12.2" y="343.1" width="24.4" height="24.65" shape-rendering="crispEdges"/><rect fill="#000000" x="36.6" y="343.1" width="97.6" height="24.65" shape-rendering="crispEdges"/><rect fill="#000000" x="134.2" y="343.1" width="12.2" height="24.65" shape-rendering="crispEdges"/><rect fill="#000000" x="146.4" y="343.1" width="12.2" height="24.65" shape-rendering="crispEdges"/><rect fill="#000000" x="158.6" y="343.1" width="12.2" height="24.65" shape-rendering="crispEdges"/><rect fill="#000000" x="170.8" y="343.1" width="97.6" height="24.65" shape-rendering="crispEdges"/><rect fill="#000000" x="268.4" y="343.1" width="12.2" height="24.65" shape-rendering="crispEdges"/><rect fill="#000000" x="280.6" y="343.1" width="12.2" height="24.65" shape-rendering="crispEdges"/><rect fill="#000000" x="292.8" y="343.1" width="915" height="24.65" shape-rendering="crispEdges"/><rect fill="#000000" x="1207.8" y="343.1" width="12.2" height="24.65" shape-rendering="crispEdges"/><rect fill="#000000" x="0" y="367.5" width="12.2" height="24.65" shape-rendering="crispEdges"/><rect fill="#000000" x="12.2" y="367.5" width="24.4" height="24.65" shape-rendering="crispEdges"/><rect fill="#000000" x="36.6" y="367.5" width="12.2" height="24.65" shape-rendering="crispEdges"/><rect fill="#000000" x="48.8" y="367.5" width="12.2" height="24.65" shape-rendering="crispEdges"/><rect fill="#000000" x="61" y="367.5" width="353.8" height="24.65" shape-rendering="crispEdges"/><rect fill="#000000" x="414.8" y="367.5" width="793" height="24.65" shape-rendering="crispEdges"/><rect fill="#000000" x="1207.8" y="367.5" width="12.2" height="24.65" shape-rendering="crispEdges"/><rect fill="#000000" x="0" y="391.9" width="12.2" height="24.65" shape-rendering="crispEdges"/><rect fill="#000000" x="12.2" y="391.9" width="24.4" height="24.65" shape-rendering="crispEdges"/><rect fill="#000000" x="36.6" y="391.9" width="12.2" height="24.65" shape-rendering="crispEdges"/><rect fill="#000000" x="48.8" y="391.9" width="12.2" height="24.65" shape-rendering="crispEdges"/><rect fill="#000000" x="61" y="391.9" width="353.8" height="24.65" shape-rendering="crispEdges"/><rect fill="#000000" x="414.8" y="391.9" width="793" height="24.65" shape-rendering="crispEdges"/><rect fill="#000000" x="1207.8" y="391.9" width="12.2" height="24.65" shape-rendering="crispEdges"/><rect fill="#000000" x="0" y="416.3" width="12.2" height="24.65" shape-rendering="crispEdges"/><rect fill="#000000" x="12.2" y="416.3" width="24.4" height="24.65" shape-rendering="crispEdges"/><rect fill="#000000" x="36.6" y="416.3" width="12.2" height="24.65" shape-rendering="crispEdges"/><rect fill="#000000" x="48.8" y="416.3" width="12.2" height="24.65" shape-rendering="crispEdges"/><rect fill="#000000" x="61" y="416.3" width="353.8" height="24.65" shape-rendering="crispEdges"/><rect fill="#000000" x="414.8" y="416.3" width="793" height="24.65" shape-rendering="crispEdges"/><rect fill="#000000" x="1207.8" y="416.3" width="12.2" height="24.65" shape-rendering="crispEdges"/><rect fill="#000000" x="0" y="440.7" width="12.2" height="24.65" shape-rendering="crispEdges"/><rect fill="#000000" x="12.2" y="440.7" width="24.4" height="24.65" shape-rendering="crispEdges"/><rect fill="#000000" x="36.6" y="440.7" width="12.2" height="24.65" shape-rendering="crispEdges"/><rect fill="#000000" x="48.8" y="440.7" width="12.2" height="24.65" shape-rendering="crispEdges"/><rect fill="#000000" x="61" y="440.7" width="341.6" height="24.65" shape-rendering="crispEdges"/><rect fill="#000000" x="402.6" y="440.7" width="805.2" height="24.65" shape-rendering="crispEdges"/><rect fill="#000000" x="1207.8" y="440.7" width="12.2" height="24.65" shape-rendering="crispEdges"/><rect fill="#000000" x="0" y="465.1" width="12.2" height="24.65" shape-rendering="crispEdges"/><rect fill="#000000" x="12.2" y="465.1" width="24.4" height="24.65" shape-rendering="crispEdges"/><rect fill="#000000" x="36.6" y="465.1" width="12.2" height="24.65" shape-rendering="crispEdges"/><rect fill="#000000" x="48.8" y="465.1" width="12.2" height="24.65" shape-rendering="crispEdges"/><rect fill="#000000" x="61" y="465.1" width="341.6" height="24.65" shape-rendering="crispEdges"/><rect fill="#000000" x="402.6" y="465.1" width="805.2" height="24.65" shape-rendering="crispEdges"/><rect fill="#000000" x="1207.8" y="465.1" width="12.2" height="24.65" shape-rendering="crispEdges"/><rect fill="#000000" x="0" y="489.5" width="12.2" height="24.65" shape-rendering="crispEdges"/><rect fill="#000000" x="12.2" y="489.5" width="12.2" height="24.65" shape-rendering="crispEdges"/><rect fill="#000000" x="24.4" y="489.5" width="12.2" height="24.65" shape-rendering="crispEdges"/><rect fill="#000000" x="36.6" y="489.5" width="61" height="24.65" shape-rendering="crispEdges"/><rect fill="#000000" x="97.6" y="489.5" width="48.8" height="24.65" shape-rendering="crispEdges"/><rect fill="#000000" x="146.4" y="489.5" width="24.4" height="24.65" shape-rendering="crispEdges"/><rect fill="#000000" x="170.8" y="489.5" width="36.6" height="24.65" shape-rendering="crispEdges"/><rect fill="#000000" x="207.4" y="489.5" width="97.6" height="24.65" shape-rendering="crispEdges"/><rect fill="#000000" x="305" y="489.5" width="12.2" height="24.65" shape-rendering="crispEdges"/><rect fill="#000000" x="317.2" y="489.5" width="12.2" height="24.65" shape-rendering="crispEdges"/><rect fill="#000000" x="329.4" y="489.5" width="878.4" height="24.65" shape-rendering="crispEdges"/><rect fill="#000000" x="1207.8" y="489.5" width="12.2" height="24.65" shape-rendering="crispEdges"/><rect fill="#000000" x="0" y="513.9" width="12.2" height="24.65" shape-rendering="crispEdges"/><rect fill="#000000" x="12.2" y="513.9" width="1195.6" height="24.65" shape-rendering="crispEdges"/><rect fill="#000000" x="1207.8" y="513.9" width="12.2" height="24.65" shape-rendering="crispEdges"/><rect fill="#000000" x="0" y="538.3" width="12.2" height="24.65" shape-rendering="crispEdges"/><rect fill="#000000" x="12.2" y="538.3" width="1195.6" height="24.65" shape-rendering="crispEdges"/><rect fill="#000000" x="1207.8" y="538.3" width="12.2" height="24.65" shape-rendering="crispEdges"/><rect fill="#000000" x="0" y="562.7" width="12.2" height="24.65" shape-rendering="crispEdges"/><rect fill="#000000" x="12.2" y="562.7" width="1195.6" height="24.65" shape-rendering="crispEdges"/><rect fill="#000000" x="1207.8" y="562.7" width="12.2" height="24.65" shape-rendering="crispEdges"/><rect fill="#000000" x="0" y="587.1" width="12.2" height="24.65" shape-rendering="crispEdges"/><rect fill="#000000" x="12.2" y="587.1" width="1195.6" height="24.65" shape-rendering="crispEdges"/><rect fill="#000000" x="1207.8" y="587.1" width="12.2" height="24.65" shape-rendering="crispEdges"/><rect fill="#000000" x="0" y="611.5" width="12.2" height="24.65" shape-rendering="crispEdges"/><rect fill="#000000" x="12.2" y="611.5" width="1195.6" height="24.65" shape-rendering="crispEdges"/><rect fill="#000000" x="1207.8" y="611.5" width="12.2" height="24.65" shape-rendering="crispEdges"/><rect fill="#000000" x="0" y="635.9" width="12.2" height="24.65" shape-rendering="crispEdges"/><rect fill="#000000" x="12.2" y="635.9" width="1195.6" height="24.65" shape-rendering="crispEdges"/><rect fill="#000000" x="1207.8" y="635.9" width="12.2" height="24.65" shape-rendering="crispEdges"/><rect fill="#000000" x="0" y="660.3" width="12.2" height="24.65" shape-rendering="crispEdges"/><rect fill="#000000" x="12.2" y="660.3" width="1195.6" height="24.65" shape-rendering="crispEdges"/><rect fill="#000000" x="1207.8" y="660.3" width="12.2" height="24.65" shape-rendering="crispEdges"/><rect fill="#000000" x="0" y="684.7" width="12.2" height="24.65" shape-rendering="crispEdges"/><rect fill="#000000" x="12.2" y="684.7" width="1195.6" height="24.65" shape-rendering="crispEdges"/><rect fill="#000000" x="1207.8" y="684.7" width="12.2" height="24.65" shape-rendering="crispEdges"/><rect fill="#000000" x="0" y="709.1" width="12.2" height="24.65" shape-rendering="crispEdges"/><rect fill="#000000" x="12.2" y="709.1" width="1195.6" height="24.65" shape-rendering="crispEdges"/><rect fill="#000000" x="1207.8" y="709.1" width="12.2" height="24.65" shape-rendering="crispEdges"/>
    <g class="terminal-1845601409-matrix">
    <text class="terminal-1845601409-r1" x="1220" y="20" textLength="12.2" clip-path="url(#terminal-1845601409-line-0)">
</text><text class="terminal-1845601409-r3" x="36.6" y="44.4" textLength="61" clip-path="url(#terminal-1845601409-line-1)">CYCLE</text><text class="terminal-1845601409-r4" x="109.8" y="44.4" textLength="97.6" clip-path="url(#terminal-1845601409-line-1)">01KZ9Z6E</text><text class="terminal-1845601409-r3" x="219.6" y="44.4" textLength="500.2" clip-path="url(#terminal-1845601409-line-1)">·&#160;trigger&#160;tui&#160;·&#160;policy&#160;pinned&#160;at&#160;dispatch</text><text class="terminal-1845601409-r1" x="1220" y="44.4" textLength="12.2" clip-path="url(#terminal-1845601409-line-1)">
</text><text class="terminal-1845601409-r1" x="1220" y="68.8" textLength="12.2" clip-path="url(#terminal-1845601409-line-2)">
</text><text class="terminal-1845601409-r5" x="36.6" y="93.2" textLength="109.8" clip-path="url(#terminal-1845601409-line-3)">&#160;OBSERVE&#160;</text><text class="terminal-1845601409-r6" x="146.4" y="93.2" textLength="24.4" clip-path="url(#terminal-1845601409-line-3)">──</text><text class="terminal-1845601409-r5" x="170.8" y="93.2" textLength="109.8" clip-path="url(#terminal-1845601409-line-3)">RETRIEVE&#160;</text><text class="terminal-1845601409-r6" x="280.6" y="93.2" textLength="24.4" clip-path="url(#terminal-1845601409-line-3)">──</text><text class="terminal-1845601409-r5" x="305" y="93.2" textLength="109.8" clip-path="url(#terminal-1845601409-line-3)">&#160;PROPOSE&#160;</text><text class="terminal-1845601409-r6" x="414.8" y="93.2" textLength="24.4" clip-path="url(#terminal-1845601409-line-3)">──</text><text class="terminal-1845601409-r3" x="439.2" y="93.2" textLength="109.8" clip-path="url(#terminal-1845601409-line-3)">&#160;THESIS&#160;&#160;</text><text class="terminal-1845601409-r6" x="549" y="93.2" textLength="24.4" clip-path="url(#terminal-1845601409-line-3)">──</text><text class="terminal-1845601409-r5" x="573.4" y="93.2" textLength="109.8" clip-path="url(#terminal-1845601409-line-3)">&#160;&#160;RISK&#160;&#160;&#160;</text><text class="terminal-1845601409-r6" x="683.2" y="93.2" textLength="24.4" clip-path="url(#terminal-1845601409-line-3)">──</text><text class="terminal-1845601409-r5" x="707.6" y="93.2" textLength="109.8" clip-path="url(#terminal-1845601409-line-3)">&#160;EXECUTE&#160;</text><text class="terminal-1845601409-r1" x="1220" y="93.2" textLength="12.2" clip-path="url(#terminal-1845601409-line-3)">
</text><text class="terminal-1845601409-r5" x="36.6" y="117.6" textLength="109.8" clip-path="url(#terminal-1845601409-line-4)">&#160;&#160;&#160;&#160;✓&#160;&#160;&#160;&#160;</text><text class="terminal-1845601409-r5" x="183" y="117.6" textLength="109.8" clip-path="url(#terminal-1845601409-line-4)">&#160;&#160;&#160;&#160;✓&#160;&#160;&#160;&#160;</text><text class="terminal-1845601409-r5" x="329.4" y="117.6" textLength="109.8" clip-path="url(#terminal-1845601409-line-4)">&#160;&#160;&#160;&#160;✓&#160;&#160;&#160;&#160;</text><text class="terminal-1845601409-r3" x="475.8" y="117.6" textLength="109.8" clip-path="url(#terminal-1845601409-line-4)">&#160;&#160;&#160;&#160;·&#160;&#160;&#160;&#160;</text><text class="terminal-1845601409-r5" x="622.2" y="117.6" textLength="109.8" clip-path="url(#terminal-1845601409-line-4)">&#160;&#160;&#160;&#160;✓&#160;&#160;&#160;&#160;</text><text class="terminal-1845601409-r5" x="768.6" y="117.6" textLength="109.8" clip-path="url(#terminal-1845601409-line-4)">&#160;&#160;&#160;&#160;✓&#160;&#160;&#160;&#160;</text><text class="terminal-1845601409-r1" x="1220" y="117.6" textLength="12.2" clip-path="url(#terminal-1845601409-line-4)">
</text><text class="terminal-1845601409-r1" x="1220" y="142" textLength="12.2" clip-path="url(#terminal-1845601409-line-5)">
</text><text class="terminal-1845601409-r6" x="36.6" y="166.4" textLength="146.4" clip-path="url(#terminal-1845601409-line-6)">22:02:40.885</text><text class="terminal-1845601409-r5" x="207.4" y="166.4" textLength="12.2" clip-path="url(#terminal-1845601409-line-6)">✓</text><text class="terminal-1845601409-r3" x="231.8" y="166.4" textLength="109.8" clip-path="url(#terminal-1845601409-line-6)">observe&#160;&#160;</text><text class="terminal-1845601409-r2" x="353.8" y="166.4" textLength="463.6" clip-path="url(#terminal-1845601409-line-6)">quotes&#160;5/5&#160;·&#160;simulated&#160;session&#160;(paper)</text><text class="terminal-1845601409-r1" x="1220" y="166.4" textLength="12.2" clip-path="url(#terminal-1845601409-line-6)">
</text><text class="terminal-1845601409-r6" x="36.6" y="190.8" textLength="146.4" clip-path="url(#terminal-1845601409-line-7)">22:02:40.887</text><text class="terminal-1845601409-r5" x="207.4" y="190.8" textLength="12.2" clip-path="url(#terminal-1845601409-line-7)">✓</text><text class="terminal-1845601409-r3" x="231.8" y="190.8" textLength="109.8" clip-path="url(#terminal-1845601409-line-7)">retrieve&#160;</text><text class="terminal-1845601409-r2" x="353.8" y="190.8" textLength="451.4" clip-path="url(#terminal-1845601409-line-7)">7&#160;items&#160;·&#160;completeness&#160;100%&#160;·&#160;0&#160;stale</text><text class="terminal-1845601409-r1" x="1220" y="190.8" textLength="12.2" clip-path="url(#terminal-1845601409-line-7)">
</text><text class="terminal-1845601409-r6" x="36.6" y="215.2" textLength="146.4" clip-path="url(#terminal-1845601409-line-8)">22:02:40.889</text><text class="terminal-1845601409-r5" x="207.4" y="215.2" textLength="12.2" clip-path="url(#terminal-1845601409-line-8)">✓</text><text class="terminal-1845601409-r3" x="231.8" y="215.2" textLength="109.8" clip-path="url(#terminal-1845601409-line-8)">propose&#160;&#160;</text><text class="terminal-1845601409-r2" x="353.8" y="215.2" textLength="585.6" clip-path="url(#terminal-1845601409-line-8)">target_allocation_rebalance@1.0.0&#160;→&#160;5&#160;candidates</text><text class="terminal-1845601409-r1" x="1220" y="215.2" textLength="12.2" clip-path="url(#terminal-1845601409-line-8)">
</text><text class="terminal-1845601409-r6" x="36.6" y="239.6" textLength="146.4" clip-path="url(#terminal-1845601409-line-9)">22:02:40.890</text><text class="terminal-1845601409-r3" x="207.4" y="239.6" textLength="12.2" clip-path="url(#terminal-1845601409-line-9)">·</text><text class="terminal-1845601409-r3" x="231.8" y="239.6" textLength="109.8" clip-path="url(#terminal-1845601409-line-9)">thesis&#160;&#160;&#160;</text><text class="terminal-1845601409-r2" x="353.8" y="239.6" textLength="329.4" clip-path="url(#terminal-1845601409-line-9)">deterministic&#160;cycle&#160;·&#160;$0.00</text><text class="terminal-1845601409-r1" x="1220" y="239.6" textLength="12.2" clip-path="url(#terminal-1845601409-line-9)">
</text><text class="terminal-1845601409-r6" x="36.6" y="264" textLength="146.4" clip-path="url(#terminal-1845601409-line-10)">22:02:40.892</text><text class="terminal-1845601409-r5" x="207.4" y="264" textLength="12.2" clip-path="url(#terminal-1845601409-line-10)">✓</text><text class="terminal-1845601409-r3" x="231.8" y="264" textLength="109.8" clip-path="url(#terminal-1845601409-line-10)">risk&#160;&#160;&#160;&#160;&#160;</text><text class="terminal-1845601409-r2" x="353.8" y="264" textLength="378.2" clip-path="url(#terminal-1845601409-line-10)">21&#160;rules&#160;·&#160;5&#160;approved,&#160;0&#160;vetoed</text><text class="terminal-1845601409-r1" x="1220" y="264" textLength="12.2" clip-path="url(#terminal-1845601409-line-10)">
</text><text class="terminal-1845601409-r6" x="36.6" y="288.4" textLength="146.4" clip-path="url(#terminal-1845601409-line-11)">22:02:40.894</text><text class="terminal-1845601409-r5" x="207.4" y="288.4" textLength="12.2" clip-path="url(#terminal-1845601409-line-11)">✓</text><text class="terminal-1845601409-r3" x="231.8" y="288.4" textLength="109.8" clip-path="url(#terminal-1845601409-line-11)">execute&#160;&#160;</text><text class="terminal-1845601409-r2" x="353.8" y="288.4" textLength="183" clip-path="url(#terminal-1845601409-line-11)">5&#160;order&#160;results</text><text class="terminal-1845601409-r1" x="1220" y="288.4" textLength="12.2" clip-path="url(#terminal-1845601409-line-11)">
</text><text class="terminal-1845601409-r1" x="1220" y="312.8" textLength="12.2" clip-path="url(#terminal-1845601409-line-12)">
</text><text class="terminal-1845601409-r5" x="36.6" y="337.2" textLength="109.8" clip-path="url(#terminal-1845601409-line-13)">completed</text><text class="terminal-1845601409-r3" x="158.6" y="337.2" textLength="207.4" clip-path="url(#terminal-1845601409-line-13)">·&#160;cycle&#160;completed</text><text class="terminal-1845601409-r1" x="1220" y="337.2" textLength="12.2" clip-path="url(#terminal-1845601409-line-13)">
</text><text class="terminal-1845601409-r3" x="36.6" y="361.6" textLength="97.6" clip-path="url(#terminal-1845601409-line-14)">approved</text><text class="terminal-1845601409-r4" x="146.4" y="361.6" textLength="12.2" clip-path="url(#terminal-1845601409-line-14)">5</text><text class="terminal-1845601409-r3" x="170.8" y="361.6" textLength="97.6" clip-path="url(#terminal-1845601409-line-14)">·&#160;vetoed</text><text class="terminal-1845601409-r4" x="280.6" y="361.6" textLength="12.2" clip-path="url(#terminal-1845601409-line-14)">0</text><text class="terminal-1845601409-r1" x="1220" y="361.6" textLength="12.2" clip-path="url(#terminal-1845601409-line-14)">
</text><text class="terminal-1845601409-r5" x="36.6" y="386" textLength="12.2" clip-path="url(#terminal-1845601409-line-15)">▸</text><text class="terminal-1845601409-r2" x="61" y="386" textLength="353.8" clip-path="url(#terminal-1845601409-line-15)">BUY&#160;140&#160;VTI&#160;@&#160;$285.24&#160;(paper)</text><text class="terminal-1845601409-r1" x="1220" y="386" textLength="12.2" clip-path="url(#terminal-1845601409-line-15)">
</text><text class="terminal-1845601409-r5" x="36.6" y="410.4" textLength="12.2" clip-path="url(#terminal-1845601409-line-16)">▸</text><text class="terminal-1845601409-r2" x="61" y="410.4" textLength="353.8" clip-path="url(#terminal-1845601409-line-16)">BUY&#160;64&#160;AAPL&#160;@&#160;$232.62&#160;(paper)</text><text class="terminal-1845601409-r1" x="1220" y="410.4" textLength="12.2" clip-path="url(#terminal-1845601409-line-16)">
</text><text class="terminal-1845601409-r5" x="36.6" y="434.8" textLength="12.2" clip-path="url(#terminal-1845601409-line-17)">▸</text><text class="terminal-1845601409-r2" x="61" y="434.8" textLength="353.8" clip-path="url(#terminal-1845601409-line-17)">BUY&#160;35&#160;MSFT&#160;@&#160;$418.41&#160;(paper)</text><text class="terminal-1845601409-r1" x="1220" y="434.8" textLength="12.2" clip-path="url(#terminal-1845601409-line-17)">
</text><text class="terminal-1845601409-r5" x="36.6" y="459.2" textLength="12.2" clip-path="url(#terminal-1845601409-line-18)">▸</text><text class="terminal-1845601409-r2" x="61" y="459.2" textLength="341.6" clip-path="url(#terminal-1845601409-line-18)">BUY&#160;61&#160;JNJ&#160;@&#160;$161.43&#160;(paper)</text><text class="terminal-1845601409-r1" x="1220" y="459.2" textLength="12.2" clip-path="url(#terminal-1845601409-line-18)">
</text><text class="terminal-1845601409-r5" x="36.6" y="483.6" textLength="12.2" clip-path="url(#terminal-1845601409-line-19)">▸</text><text class="terminal-1845601409-r2" x="61" y="483.6" textLength="341.6" clip-path="url(#terminal-1845601409-line-19)">BUY&#160;84&#160;XOM&#160;@&#160;$118.96&#160;(paper)</text><text class="terminal-1845601409-r1" x="1220" y="483.6" textLength="12.2" clip-path="url(#terminal-1845601409-line-19)">
</text><text class="terminal-1845601409-r3" x="12.2" y="508" textLength="12.2" clip-path="url(#terminal-1845601409-line-20)">└</text><text class="terminal-1845601409-r7" x="36.6" y="508" textLength="61" clip-path="url(#terminal-1845601409-line-20)">[esc]</text><text class="terminal-1845601409-r3" x="97.6" y="508" textLength="48.8" clip-path="url(#terminal-1845601409-line-20)">&#160;den</text><text class="terminal-1845601409-r7" x="170.8" y="508" textLength="36.6" clip-path="url(#terminal-1845601409-line-20)">[⏎]</text><text class="terminal-1845601409-r3" x="207.4" y="508" textLength="97.6" clip-path="url(#terminal-1845601409-line-20)">&#160;verdict</text><text class="terminal-1845601409-r3" x="317.2" y="508" textLength="12.2" clip-path="url(#terminal-1845601409-line-20)">┘</text><text class="terminal-1845601409-r1" x="1220" y="508" textLength="12.2" clip-path="url(#terminal-1845601409-line-20)">
</text><text class="terminal-1845601409-r1" x="1220" y="532.4" textLength="12.2" clip-path="url(#terminal-1845601409-line-21)">
</text><text class="terminal-1845601409-r1" x="1220" y="556.8" textLength="12.2" clip-path="url(#terminal-1845601409-line-22)">
</text><text class="terminal-1845601409-r1" x="1220" y="581.2" textLength="12.2" clip-path="url(#terminal-1845601409-line-23)">
</text><text class="terminal-1845601409-r1" x="1220" y="605.6" textLength="12.2" clip-path="url(#terminal-1845601409-line-24)">
</text><text class="terminal-1845601409-r1" x="1220" y="630" textLength="12.2" clip-path="url(#terminal-1845601409-line-25)">
</text><text class="terminal-1845601409-r1" x="1220" y="654.4" textLength="12.2" clip-path="url(#terminal-1845601409-line-26)">
</text><text class="terminal-1845601409-r1" x="1220" y="678.8" textLength="12.2" clip-path="url(#terminal-1845601409-line-27)">
</text><text class="terminal-1845601409-r1" x="1220" y="703.2" textLength="12.2" clip-path="url(#terminal-1845601409-line-28)">
</text>
    </g>
    </g>
</svg>
