<svg class="rich-terminal" viewBox="0 0 1238 489.2" xmlns="http://www.w3.org/2000/svg">
    <!-- Generated with Rich https://www.textualize.io -->
    <style>

    @font-face {
        font-family: "Fira Code";
        src: local("FiraCode-Regular"),
                url("https://cdnjs.cloudflare.com/ajax/libs/firacode/6.2.0/woff2/FiraCode-Regular.woff2") format("woff2"),
                url("https://cdnjs.cloudflare.com/ajax/libs/firacode/6.2.0/woff/FiraCode-Regular.woff") format("woff");
        font-style: normal;
        font-weight: 400;
    }
    @font-face {
        font-family: "Fira Code";
        src: local("FiraCode-Bold"),
                url("https://cdnjs.cloudflare.com/ajax/libs/firacode/6.2.0/woff2/FiraCode-Bold.woff2") format("woff2"),
                url("https://cdnjs.cloudflare.com/ajax/libs/firacode/6.2.0/woff/FiraCode-Bold.woff") format("woff");
        font-style: bold;
        font-weight: 700;
    }

    .terminal-3907232102-matrix {
        font-family: Fira Code, monospace;
        font-size: 20px;
        line-height: 24.4px;
        font-variant-east-asian: full-width;
    }

    .terminal-3907232102-title {
        font-size: 18px;
        font-weight: bold;
        font-family: arial;
    }

    .terminal-3907232102-r1 { fill: #c5c8c6 }
.terminal-3907232102-r2 { fill: #c7d0dc }
.terminal-3907232102-r3 { fill: #57616f }
.terminal-3907232102-r4 { fill: #7ed491 }
.terminal-3907232102-r5 { fill: #f0b45c }
.terminal-3907232102-r6 { fill: #39424e }
.terminal-3907232102-r7 { fill: #f08c8c }
    </style>

    <defs>
    <clipPath id="terminal-3907232102-clip-terminal">
      <rect x="0" y="0" width="1219.0" height="438.2" />
    </clipPath>
    <clipPath id="terminal-3907232102-line-0">
    <rect x="0" y="1.5" width="1220" height="24.65"/>
            </clipPath>
<clipPath id="terminal-3907232102-line-1">
    <rect x="0" y="25.9" width="1220" height="24.65"/>
            </clipPath>
<clipPath id="terminal-3907232102-line-2">
    <rect x="0" y="50.3" width="1220" height="24.65"/>
            </clipPath>
<clipPath id="terminal-3907232102-line-3">
    <rect x="0" y="74.7" width="1220" height="24.65"/>
            </clipPath>
<clipPath id="terminal-3907232102-line-4">
    <rect x="0" y="99.1" width="1220" height="24.65"/>
            </clipPath>
<clipPath id="terminal-3907232102-line-5">
    <rect x="0" y="123.5" width="1220" height="24.65"/>
            </clipPath>
<clipPath id="terminal-3907232102-line-6">
    <rect x="0" y="147.9" width="1220" height="24.65"/>
            </clipPath>
<clipPath id="terminal-3907232102-line-7">
    <rect x="0" y="172.3" width="1220" height="24.65"/>
            </clipPath>
<clipPath id="terminal-3907232102-line-8">
    <rect x="0" y="196.7" width="1220" height="24.65"/>
            </clipPath>
<clipPath id="terminal-3907232102-line-9">
    <rect x="0" y="221.1" width="1220" height="24.65"/>
            </clipPath>
<clipPath id="terminal-3907232102-line-10">
    <rect x="0" y="245.5" width="1220" height="24.65"/>
            </clipPath>
<clipPath id="terminal-3907232102-line-11">
    <rect x="0" y="269.9" width="1220" height="24.65"/>
            </clipPath>
<clipPath id="terminal-3907232102-line-12">
    <rect x="0" y="294.3" width="1220" height="24.65"/>
            </clipPath>
<clipPath id="terminal-3907232102-line-13">
    <rect x="0" y="318.7" width="1220" height="24.65"/>
            </clipPath>
<clipPath id="terminal-3907232102-line-14">
    <rect x="0" y="343.1" width="1220" height="24.65"/>
            </clipPath>
<clipPath id="terminal-3907232102-line-15">
    <rect x="0" y="367.5" width="1220" height="24.65"/>
            </clipPath>
<clipPath id="terminal-3907232102-line-16">
    <rect x="0" y="391.9" width="1220" height="24.65"/>
            </clipPath>
    </defs>

    <rect fill="#292929" stroke="rgba(255,255,255,0.35)" stroke-width="1" x="1" y="1" width="1236" height="487.2" rx="8"/><text class="terminal-3907232102-title" fill="#c5c8c6" text-anchor="middle" x="618" y="27">wolf&#160;·&#160;journal</text>
            <g transform="translate(26,22)">
            <circle cx="0" cy="0" r="7" fill="#ff5f57"/>
            <circle cx="22" cy="0" r="7" fill="#febc2e"/>
            <circle cx="44" cy="0" r="7" fill="#28c840"/>
            </g>
        
    <g transform="translate(9, 41)" clip-path="url(#terminal-3907232102-clip-terminal)">
    <rect fill="#0e1219" x="0" y="1.5" width="12.2" height="24.65" shape-rendering="crispEdges"/><rect fill="#0e1219" x="12.2" y="1.5" width="0" height="24.65" shape-rendering="crispEdges"/><rect fill="#0e1219" x="12.2" y="1.5" width="1195.6" height="24.65" shape-rendering="crispEdges"/><rect fill="#0e1219" x="1207.8" y="1.5" width="12.2" height="24.65" shape-rendering="crispEdges"/><rect fill="#0e1219" x="0" y="25.9" width="12.2" height="24.65" shape-rendering="crispEdges"/><rect fill="#0e1219" x="12.2" y="25.9" width="24.4" height="24.65" shape-rendering="crispEdges"/><rect fill="#0e1219" x="36.6" y="25.9" width="280.6" height="24.65" shape-rendering="crispEdges"/><rect fill="#0e1219" x="317.2" y="25.9" width="12.2" height="24.65" shape-rendering="crispEdges"/><rect fill="#0e1219" x="329.4" y="25.9" width="183" height="24.65" shape-rendering="crispEdges"/><rect fill="#0e1219" x="512.4" y="25.9" width="695.4" height="24.65" shape-rendering="crispEdges"/><rect fill="#0e1219" x="1207.8" y="25.9" width="12.2" height="24.65" shape-rendering="crispEdges"/><rect fill="#0e1219" x="0" y="50.3" width="12.2" height="24.65" shape-rendering="crispEdges"/><rect fill="#0e1219" x="12.2" y="50.3" width="0" height="24.65" shape-rendering="crispEdges"/><rect fill="#0e1219" x="12.2" y="50.3" width="1195.6" height="24.65" shape-rendering="crispEdges"/><rect fill="#0e1219" x="1207.8" y="50.3" width="12.2" height="24.65" shape-rendering="crispEdges"/><rect fill="#0e1219" x="0" y="74.7" width="12.2" height="24.65" shape-rendering="crispEdges"/><rect fill="#0e1219" x="12.2" y="74.7" width="24.4" height="24.65" shape-rendering="crispEdges"/><rect fill="#0e1219" x="36.6" y="74.7" width="12.2" height="24.65" shape-rendering="crispEdges"/><rect fill="#0e1219" x="48.8" y="74.7" width="12.2" height="24.65" shape-rendering="crispEdges"/><rect fill="#0e1219" x="61" y="74.7" width="134.2" height="24.65" shape-rendering="crispEdges"/><rect fill="#0e1219" x="195.2" y="74.7" width="24.4" height="24.65" shape-rendering="crispEdges"/><rect fill="#0e1219" x="219.6" y="74.7" width="146.4" height="24.65" shape-rendering="crispEdges"/><rect fill="#0e1219" x="366" y="74.7" width="134.2" height="24.65" shape-rendering="crispEdges"/><rect fill="#0e1219" x="500.2" y="74.7" width="85.4" height="24.65" shape-rendering="crispEdges"/><rect fill="#0e1219" x="585.6" y="74.7" width="36.6" height="24.65" shape-rendering="crispEdges"/><rect fill="#0e1219" x="622.2" y="74.7" width="158.6" height="24.65" shape-rendering="crispEdges"/><rect fill="#0e1219" x="780.8" y="74.7" width="24.4" height="24.65" shape-rendering="crispEdges"/><rect fill="#0e1219" x="805.2" y="74.7" width="12.2" height="24.65" shape-rendering="crispEdges"/><rect fill="#0e1219" x="817.4" y="74.7" width="390.4" height="24.65" shape-rendering="crispEdges"/><rect fill="#0e1219" x="1207.8" y="74.7" width="12.2" height="24.65" shape-rendering="crispEdges"/><rect fill="#0e1219" x="0" y="99.1" width="12.2" height="24.65" shape-rendering="crispEdges"/><rect fill="#0e1219" x="12.2" y="99.1" width="73.2" height="24.65" shape-rendering="crispEdges"/><rect fill="#0e1219" x="85.4" y="99.1" width="183" height="24.65" shape-rendering="crispEdges"/><rect fill="#0e1219" x="268.4" y="99.1" width="12.2" height="24.65" shape-rendering="crispEdges"/><rect fill="#0e1219" x="280.6" y="99.1" width="585.6" height="24.65" shape-rendering="crispEdges"/><rect fill="#0e1219" x="866.2" y="99.1" width="341.6" height="24.65" shape-rendering="crispEdges"/><rect fill="#0e1219" x="1207.8" y="99.1" width="12.2" height="24.65" shape-rendering="crispEdges"/><rect fill="#0e1219" x="0" y="123.5" width="12.2" height="24.65" shape-rendering="crispEdges"/><rect fill="#0e1219" x="12.2" y="123.5" width="73.2" height="24.65" shape-rendering="crispEdges"/><rect fill="#0e1219" x="85.4" y="123.5" width="317.2" height="24.65" shape-rendering="crispEdges"/><rect fill="#0e1219" x="402.6" y="123.5" width="12.2" height="24.65" shape-rendering="crispEdges"/><rect fill="#0e1219" x="414.8" y="123.5" width="536.8" height="24.65" shape-rendering="crispEdges"/><rect fill="#0e1219" x="951.6" y="123.5" width="256.2" height="24.65" shape-rendering="crispEdges"/><rect fill="#0e1219" x="1207.8" y="123.5" width="12.2" height="24.65" shape-rendering="crispEdges"/><rect fill="#0e1219" x="0" y="147.9" width="12.2" height="24.65" shape-rendering="crispEdges"/><rect fill="#0e1219" x="12.2" y="147.9" width="48.8" height="24.65" shape-rendering="crispEdges"/><rect fill="#0e1219" x="61" y="147.9" width="134.2" height="24.65" shape-rendering="crispEdges"/><rect fill="#0e1219" x="195.2" y="147.9" width="24.4" height="24.65" shape-rendering="crispEdges"/><rect fill="#0e1219" x="219.6" y="147.9" width="146.4" height="24.65" shape-rendering="crispEdges"/><rect fill="#0e1219" x="366" y="147.9" width="134.2" height="24.65" shape-rendering="crispEdges"/><rect fill="#0e1219" x="500.2" y="147.9" width="85.4" height="24.65" shape-rendering="crispEdges"/><rect fill="#0e1219" x="585.6" y="147.9" width="36.6" height="24.65" shape-rendering="crispEdges"/><rect fill="#0e1219" x="622.2" y="147.9" width="158.6" height="24.65" shape-rendering="crispEdges"/><rect fill="#0e1219" x="780.8" y="147.9" width="24.4" height="24.65" shape-rendering="crispEdges"/><rect fill="#0e1219" x="805.2" y="147.9" width="12.2" height="24.65" shape-rendering="crispEdges"/><rect fill="#0e1219" x="817.4" y="147.9" width="390.4" height="24.65" shape-rendering="crispEdges"/><rect fill="#0e1219" x="1207.8" y="147.9" width="12.2" height="24.65" shape-rendering="crispEdges"/><rect fill="#0e1219" x="0" y="172.3" width="12.2" height="24.65" shape-rendering="crispEdges"/><rect fill="#0e1219" x="12.2" y="172.3" width="48.8" height="24.65" shape-rendering="crispEdges"/><rect fill="#0e1219" x="61" y="172.3" width="134.2" height="24.65" shape-rendering="crispEdges"/><rect fill="#0e1219" x="195.2" y="172.3" width="24.4" height="24.65" shape-rendering="crispEdges"/><rect fill="#0e1219" x="219.6" y="172.3" width="146.4" height="24.65" shape-rendering="crispEdges"/><rect fill="#0e1219" x="366" y="172.3" width="134.2" height="24.65" shape-rendering="crispEdges"/><rect fill="#0e1219" x="500.2" y="172.3" width="85.4" height="24.65" shape-rendering="crispEdges"/><rect fill="#0e1219" x="585.6" y="172.3" width="36.6" height="24.65" shape-rendering="crispEdges"/><rect fill="#0e1219" x="622.2" y="172.3" width="158.6" height="24.65" shape-rendering="crispEdges"/><rect fill="#0e1219" x="780.8" y="172.3" width="24.4" height="24.65" shape-rendering="crispEdges"/><rect fill="#0e1219" x="805.2" y="172.3" width="12.2" height="24.65" shape-rendering="crispEdges"/><rect fill="#0e1219" x="817.4" y="172.3" width="390.4" height="24.65" shape-rendering="crispEdges"/><rect fill="#0e1219" x="1207.8" y="172.3" width="12.2" height="24.65" shape-rendering="crispEdges"/><rect fill="#0e1219" x="0" y="196.7" width="12.2" height="24.65" shape-rendering="crispEdges"/><rect fill="#0e1219" x="12.2" y="196.7" width="0" height="24.65" shape-rendering="crispEdges"/><rect fill="#0e1219" x="12.2" y="196.7" width="1195.6" height="24.65" shape-rendering="crispEdges"/><rect fill="#0e1219" x="1207.8" y="196.7" width="12.2" height="24.65" shape-rendering="crispEdges"/><rect fill="#0e1219" x="0" y="221.1" width="12.2" height="24.65" shape-rendering="crispEdges"/><rect fill="#0e1219" x="12.2" y="221.1" width="24.4" height="24.65" shape-rendering="crispEdges"/><rect fill="#0e1219" x="36.6" y="221.1" width="146.4" height="24.65" shape-rendering="crispEdges"/><rect fill="#0e1219" x="183" y="221.1" width="12.2" height="24.65" shape-rendering="crispEdges"/><rect fill="#0e1219" x="195.2" y="221.1" width="12.2" height="24.65" shape-rendering="crispEdges"/><rect fill="#0e1219" x="207.4" y="221.1" width="12.2" height="24.65" shape-rendering="crispEdges"/><rect fill="#0e1219" x="219.6" y="221.1" width="73.2" height="24.65" shape-rendering="crispEdges"/><rect fill="#0e1219" x="292.8" y="221.1" width="36.6" height="24.65" shape-rendering="crispEdges"/><rect fill="#0e1219" x="329.4" y="221.1" width="12.2" height="24.65" shape-rendering="crispEdges"/><rect fill="#0e1219" x="341.6" y="221.1" width="12.2" height="24.65" shape-rendering="crispEdges"/><rect fill="#0e1219" x="353.8" y="221.1" width="158.6" height="24.65" shape-rendering="crispEdges"/><rect fill="#0e1219" x="512.4" y="221.1" width="36.6" height="24.65" shape-rendering="crispEdges"/><rect fill="#0e1219" x="549" y="221.1" width="12.2" height="24.65" shape-rendering="crispEdges"/><rect fill="#0e1219" x="561.2" y="221.1" width="12.2" height="24.65" shape-rendering="crispEdges"/><rect fill="#0e1219" x="573.4" y="221.1" width="183" height="24.65" shape-rendering="crispEdges"/><rect fill="#0e1219" x="756.4" y="221.1" width="451.4" height="24.65" shape-rendering="crispEdges"/><rect fill="#0e1219" x="1207.8" y="221.1" width="12.2" height="24.65" shape-rendering="crispEdges"/><rect fill="#0e1219" x="0" y="245.5" width="12.2" height="24.65" shape-rendering="crispEdges"/><rect fill="#0e1219" x="12.2" y="245.5" width="12.2" height="24.65" shape-rendering="crispEdges"/><rect fill="#0e1219" x="24.4" y="245.5" width="12.2" height="24.65" shape-rendering="crispEdges"/><rect fill="#0e1219" x="36.6" y="245.5" width="36.6" height="24.65" shape-rendering="crispEdges"/><rect fill="#0e1219" x="73.2" y="245.5" width="61" height="24.65" shape-rendering="crispEdges"/><rect fill="#0e1219" x="134.2" y="245.5" width="24.4" height="24.65" shape-rendering="crispEdges"/><rect fill="#0e1219" x="158.6" y="245.5" width="48.8" height="24.65" shape-rendering="crispEdges"/><rect fill="#0e1219" x="207.4" y="245.5" width="61" height="24.65" shape-rendering="crispEdges"/><rect fill="#0e1219" x="268.4" y="245.5" width="24.4" height="24.65" shape-rendering="crispEdges"/><rect fill="#0e1219" x="292.8" y="245.5" width="61" height="24.65" shape-rendering="crispEdges"/><rect fill="#0e1219" x="353.8" y="245.5" width="48.8" height="24.65" shape-rendering="crispEdges"/><rect fill="#0e1219" x="402.6" y="245.5" width="12.2" height="24.65" shape-rendering="crispEdges"/><rect fill="#0e1219" x="414.8" y="245.5" width="12.2" height="24.65" shape-rendering="crispEdges"/><rect fill="#0e1219" x="427" y="245.5" width="780.8" height="24.65" shape-rendering="crispEdges"/><rect fill="#0e1219" x="1207.8" y="245.5" width="12.2" height="24.65" shape-rendering="crispEdges"/><rect fill="#0e1219" x="0" y="269.9" width="12.2" height="24.65" shape-rendering="crispEdges"/><rect fill="#0e1219" x="12.2" y="269.9" width="1195.6" height="24.65" shape-rendering="crispEdges"/><rect fill="#0e1219" x="1207.8" y="269.9" width="12.2" height="24.65" shape-rendering="crispEdges"/><rect fill="#0e1219" x="0" y="294.3" width="12.2" height="24.65" shape-rendering="crispEdges"/><rect fill="#0e1219" x="12.2" y="294.3" width="1195.6" height="24.65" shape-rendering="crispEdges"/><rect fill="#0e1219" x="1207.8" y="294.3" width="12.2" height="24.65" shape-rendering="crispEdges"/><rect fill="#0e1219" x="0" y="318.7" width="12.2" height="24.65" shape-rendering="crispEdges"/><rect fill="#0e1219" x="12.2" y="318.7" width="1195.6" height="24.65" shape-rendering="crispEdges"/><rect fill="#0e1219" x="1207.8" y="318.7" width="12.2" height="24.65" shape-rendering="crispEdges"/><rect fill="#0e1219" x="0" y="343.1" width="12.2" height="24.65" shape-rendering="crispEdges"/><rect fill="#0e1219" x="12.2" y="343.1" width="1195.6" height="24.65" shape-rendering="crispEdges"/><rect fill="#0e1219" x="1207.8" y="343.1" width="12.2" height="24.65" shape-rendering="crispEdges"/><rect fill="#0e1219" x="0" y="367.5" width="12.2" height="24.65" shape-rendering="crispEdges"/><rect fill="#0e1219" x="12.2" y="367.5" width="1195.6" height="24.65" shape-rendering="crispEdges"/><rect fill="#0e1219" x="1207.8" y="367.5" width="12.2" height="24.65" shape-rendering="crispEdges"/><rect fill="#0e1219" x="0" y="391.9" width="12.2" height="24.65" shape-rendering="crispEdges"/><rect fill="#0e1219" x="12.2" y="391.9" width="1195.6" height="24.65" shape-rendering="crispEdges"/><rect fill="#0e1219" x="1207.8" y="391.9" width="12.2" height="24.65" shape-rendering="crispEdges"/><rect fill="#0e1219" x="0" y="416.3" width="12.2" height="24.65" shape-rendering="crispEdges"/><rect fill="#0e1219" x="12.2" y="416.3" width="1195.6" height="24.65" shape-rendering="crispEdges"/><rect fill="#0e1219" x="1207.8" y="416.3" width="12.2" height="24.65" shape-rendering="crispEdges"/>
    <g class="terminal-3907232102-matrix">
    <text class="terminal-3907232102-r1" x="1220" y="20" textLength="12.2" clip-path="url(#terminal-3907232102-line-0)">
</text><text class="terminal-3907232102-r3" x="36.6" y="44.4" textLength="280.6" clip-path="url(#terminal-3907232102-line-1)">JOURNAL&#160;·&#160;3&#160;decisions&#160;·</text><text class="terminal-3907232102-r4" x="329.4" y="44.4" textLength="183" clip-path="url(#terminal-3907232102-line-1)">replay&#160;verified</text><text class="terminal-3907232102-r1" x="1220" y="44.4" textLength="12.2" clip-path="url(#terminal-3907232102-line-1)">
</text><text class="terminal-3907232102-r1" x="1220" y="68.8" textLength="12.2" clip-path="url(#terminal-3907232102-line-2)">
</text><text class="terminal-3907232102-r5" x="36.6" y="93.2" textLength="12.2" clip-path="url(#terminal-3907232102-line-3)">▸</text><text class="terminal-3907232102-r6" x="61" y="93.2" textLength="134.2" clip-path="url(#terminal-3907232102-line-3)">08-05&#160;15:19</text><text class="terminal-3907232102-r3" x="219.6" y="93.2" textLength="146.4" clip-path="url(#terminal-3907232102-line-3)">rebalance&#160;&#160;&#160;</text><text class="terminal-3907232102-r5" x="366" y="93.2" textLength="134.2" clip-path="url(#terminal-3907232102-line-3)">no&#160;action&#160;&#160;</text><text class="terminal-3907232102-r3" x="500.2" y="93.2" textLength="85.4" clip-path="url(#terminal-3907232102-line-3)">&#160;&#160;&#160;&#160;&#160;&#160;—</text><text class="terminal-3907232102-r6" x="622.2" y="93.2" textLength="158.6" clip-path="url(#terminal-3907232102-line-3)">deterministic</text><text class="terminal-3907232102-r5" x="805.2" y="93.2" textLength="12.2" clip-path="url(#terminal-3907232102-line-3)">◐</text><text class="terminal-3907232102-r1" x="1220" y="93.2" textLength="12.2" clip-path="url(#terminal-3907232102-line-3)">
</text><text class="terminal-3907232102-r6" x="85.4" y="117.6" textLength="183" clip-path="url(#terminal-3907232102-line-4)">└&#160;what&#160;we&#160;knew:</text><text class="terminal-3907232102-r3" x="280.6" y="117.6" textLength="585.6" clip-path="url(#terminal-3907232102-line-4)">package&#160;01KZ9852G4&#160;·&#160;7&#160;items&#160;·&#160;completeness&#160;100%</text><text class="terminal-3907232102-r1" x="1220" y="117.6" textLength="12.2" clip-path="url(#terminal-3907232102-line-4)">
</text><text class="terminal-3907232102-r6" x="85.4" y="142" textLength="317.2" clip-path="url(#terminal-3907232102-line-5)">└&#160;no-action&#160;is&#160;a&#160;decision:</text><text class="terminal-3907232102-r3" x="414.8" y="142" textLength="536.8" clip-path="url(#terminal-3907232102-line-5)">no&#160;action:&#160;VTI:&#160;drift&#160;-0.1%&#160;within&#160;threshol…</text><text class="terminal-3907232102-r1" x="1220" y="142" textLength="12.2" clip-path="url(#terminal-3907232102-line-5)">
</text><text class="terminal-3907232102-r6" x="61" y="166.4" textLength="134.2" clip-path="url(#terminal-3907232102-line-6)">08-05&#160;15:19</text><text class="terminal-3907232102-r3" x="219.6" y="166.4" textLength="146.4" clip-path="url(#terminal-3907232102-line-6)">rebalance&#160;&#160;&#160;</text><text class="terminal-3907232102-r5" x="366" y="166.4" textLength="134.2" clip-path="url(#terminal-3907232102-line-6)">no&#160;action&#160;&#160;</text><text class="terminal-3907232102-r3" x="500.2" y="166.4" textLength="85.4" clip-path="url(#terminal-3907232102-line-6)">&#160;&#160;&#160;&#160;&#160;&#160;—</text><text class="terminal-3907232102-r6" x="622.2" y="166.4" textLength="158.6" clip-path="url(#terminal-3907232102-line-6)">deterministic</text><text class="terminal-3907232102-r5" x="805.2" y="166.4" textLength="12.2" clip-path="url(#terminal-3907232102-line-6)">◐</text><text class="terminal-3907232102-r1" x="1220" y="166.4" textLength="12.2" clip-path="url(#terminal-3907232102-line-6)">
</text><text class="terminal-3907232102-r6" x="61" y="190.8" textLength="134.2" clip-path="url(#terminal-3907232102-line-7)">08-05&#160;15:19</text><text class="terminal-3907232102-r3" x="219.6" y="190.8" textLength="146.4" clip-path="url(#terminal-3907232102-line-7)">rebalance&#160;&#160;&#160;</text><text class="terminal-3907232102-r4" x="366" y="190.8" textLength="134.2" clip-path="url(#terminal-3907232102-line-7)">5&#160;fills&#160;&#160;&#160;&#160;</text><text class="terminal-3907232102-r3" x="500.2" y="190.8" textLength="85.4" clip-path="url(#terminal-3907232102-line-7)">&#160;&#160;21/21</text><text class="terminal-3907232102-r6" x="622.2" y="190.8" textLength="158.6" clip-path="url(#terminal-3907232102-line-7)">deterministic</text><text class="terminal-3907232102-r4" x="805.2" y="190.8" textLength="12.2" clip-path="url(#terminal-3907232102-line-7)">●</text><text class="terminal-3907232102-r1" x="1220" y="190.8" textLength="12.2" clip-path="url(#terminal-3907232102-line-7)">
</text><text class="terminal-3907232102-r1" x="1220" y="215.2" textLength="12.2" clip-path="url(#terminal-3907232102-line-8)">
</text><text class="terminal-3907232102-r3" x="36.6" y="239.6" textLength="146.4" clip-path="url(#terminal-3907232102-line-9)">outcome&#160;key:</text><text class="terminal-3907232102-r4" x="195.2" y="239.6" textLength="12.2" clip-path="url(#terminal-3907232102-line-9)">●</text><text class="terminal-3907232102-r3" x="219.6" y="239.6" textLength="73.2" clip-path="url(#terminal-3907232102-line-9)">traded</text><text class="terminal-3907232102-r2" x="292.8" y="239.6" textLength="36.6" clip-path="url(#terminal-3907232102-line-9)">&#160;·&#160;</text><text class="terminal-3907232102-r5" x="329.4" y="239.6" textLength="12.2" clip-path="url(#terminal-3907232102-line-9)">◐</text><text class="terminal-3907232102-r3" x="353.8" y="239.6" textLength="158.6" clip-path="url(#terminal-3907232102-line-9)">held&#160;position</text><text class="terminal-3907232102-r2" x="512.4" y="239.6" textLength="36.6" clip-path="url(#terminal-3907232102-line-9)">&#160;·&#160;</text><text class="terminal-3907232102-r7" x="549" y="239.6" textLength="12.2" clip-path="url(#terminal-3907232102-line-9)">✕</text><text class="terminal-3907232102-r3" x="573.4" y="239.6" textLength="183" clip-path="url(#terminal-3907232102-line-9)">blocked&#160;by&#160;risk</text><text class="terminal-3907232102-r1" x="1220" y="239.6" textLength="12.2" clip-path="url(#terminal-3907232102-line-9)">
</text><text class="terminal-3907232102-r3" x="12.2" y="264" textLength="12.2" clip-path="url(#terminal-3907232102-line-10)">└</text><text class="terminal-3907232102-r5" x="36.6" y="264" textLength="36.6" clip-path="url(#terminal-3907232102-line-10)">[⏎]</text><text class="terminal-3907232102-r3" x="73.2" y="264" textLength="61" clip-path="url(#terminal-3907232102-line-10)">&#160;open</text><text class="terminal-3907232102-r5" x="158.6" y="264" textLength="48.8" clip-path="url(#terminal-3907232102-line-10)">[↑↓]</text><text class="terminal-3907232102-r3" x="207.4" y="264" textLength="61" clip-path="url(#terminal-3907232102-line-10)">&#160;move</text><text class="terminal-3907232102-r5" x="292.8" y="264" textLength="61" clip-path="url(#terminal-3907232102-line-10)">[esc]</text><text class="terminal-3907232102-r3" x="353.8" y="264" textLength="48.8" clip-path="url(#terminal-3907232102-line-10)">&#160;den</text><text class="terminal-3907232102-r3" x="414.8" y="264" textLength="12.2" clip-path="url(#terminal-3907232102-line-10)">┘</text><text class="terminal-3907232102-r1" x="1220" y="264" textLength="12.2" clip-path="url(#terminal-3907232102-line-10)">
</text><text class="terminal-3907232102-r1" x="1220" y="288.4" textLength="12.2" clip-path="url(#terminal-3907232102-line-11)">
</text><text class="terminal-3907232102-r1" x="1220" y="312.8" textLength="12.2" clip-path="url(#terminal-3907232102-line-12)">
</text><text class="terminal-3907232102-r1" x="1220" y="337.2" textLength="12.2" clip-path="url(#terminal-3907232102-line-13)">
</text><text class="terminal-3907232102-r1" x="1220" y="361.6" textLength="12.2" clip-path="url(#terminal-3907232102-line-14)">
</text><text class="terminal-3907232102-r1" x="1220" y="386" textLength="12.2" clip-path="url(#terminal-3907232102-line-15)">
</text><text class="terminal-3907232102-r1" x="1220" y="410.4" textLength="12.2" clip-path="url(#terminal-3907232102-line-16)">
</text>
    </g>
    </g>
</svg>
